<svg xmlns="http://www.w3.org/2000/svg" xmlns:xlink="http://www.w3.org/1999/xlink" width="500" zoomAndPan="magnify" viewBox="0 0 375 374.999991" height="500" preserveAspectRatio="xMidYMid meet" version="1.0"><defs><clipPath id="b24d5ed009"><path d="M 43 30.324219 L 331.746094 30.324219 L 331.746094 344.574219 L 43 344.574219 Z M 43 30.324219 " clip-rule="nonzero"/></clipPath></defs><g clip-path="url(#b24d5ed009)"><path fill="#ffffff" d="M 331.984375 316.28125 L 331.984375 313.109375 C 331.984375 293.609375 328.160156 274.6875 320.621094 256.863281 C 313.34375 239.65625 302.929688 224.207031 289.667969 210.945312 C 276.40625 197.679688 260.953125 187.265625 243.746094 179.988281 C 242.617188 179.511719 241.476562 179.046875 240.332031 178.597656 C 242.496094 176.828125 244.582031 174.945312 246.578125 172.945312 C 254.246094 165.28125 260.269531 156.347656 264.476562 146.394531 C 268.835938 136.085938 271.050781 125.140625 271.050781 113.871094 C 271.050781 102.597656 268.839844 91.65625 264.476562 81.34375 C 260.269531 71.394531 254.246094 62.460938 246.578125 54.792969 C 238.910156 47.125 229.980469 41.105469 220.027344 36.898438 C 209.71875 32.535156 198.773438 30.324219 187.503906 30.324219 C 176.230469 30.324219 165.289062 32.535156 154.976562 36.898438 C 145.027344 41.105469 136.09375 47.125 128.425781 54.792969 C 120.757812 62.460938 114.738281 71.394531 110.527344 81.34375 C 106.167969 91.65625 103.957031 102.597656 103.957031 113.871094 C 103.957031 125.140625 106.167969 136.085938 110.527344 146.394531 C 114.738281 156.347656 120.761719 165.277344 128.425781 172.945312 C 130.425781 174.945312 132.507812 176.828125 134.675781 178.597656 C 133.527344 179.046875 132.390625 179.511719 131.257812 179.988281 C 114.050781 187.265625 98.601562 197.679688 85.339844 210.945312 C 72.078125 224.207031 61.660156 239.65625 54.382812 256.863281 C 46.84375 274.6875 43.023438 293.609375 43.023438 313.109375 L 43.023438 316.28125 C 43.023438 331.113281 54.402344 343.332031 68.890625 344.671875 L 308.082031 344.421875 L 308.167969 344.410156 C 310.65625 344.15625 313.070312 343.414062 315.273438 342.234375 C 325.121094 337.738281 331.984375 327.796875 331.984375 316.28125 Z M 125.925781 139.882812 C 122.441406 131.644531 120.671875 122.890625 120.671875 113.871094 C 120.671875 104.847656 122.441406 96.097656 125.925781 87.855469 C 129.292969 79.898438 134.109375 72.753906 140.246094 66.613281 C 146.386719 60.476562 153.53125 55.660156 161.488281 52.292969 C 169.730469 48.808594 178.480469 47.042969 187.503906 47.042969 C 196.523438 47.042969 205.277344 48.808594 213.515625 52.292969 C 221.472656 55.660156 228.621094 60.476562 234.757812 66.613281 C 240.894531 72.753906 245.714844 79.898438 249.082031 87.859375 C 252.566406 96.097656 254.332031 104.847656 254.332031 113.871094 C 254.332031 122.890625 252.5625 131.644531 249.082031 139.882812 C 245.714844 147.839844 240.894531 154.988281 234.757812 161.125 C 228.621094 167.261719 221.472656 172.082031 213.515625 175.445312 C 205.277344 178.929688 196.523438 180.699219 187.503906 180.699219 C 178.480469 180.699219 169.730469 178.929688 161.488281 175.445312 C 153.53125 172.082031 146.386719 167.261719 140.246094 161.125 C 134.109375 154.988281 129.292969 147.839844 125.925781 139.882812 Z M 315.265625 316.28125 C 315.265625 322.785156 309.976562 328.078125 303.472656 328.078125 L 71.53125 328.078125 C 65.027344 328.078125 59.738281 322.785156 59.738281 316.28125 L 59.738281 313.109375 C 59.738281 295.859375 63.117188 279.128906 69.78125 263.375 C 76.214844 248.160156 85.425781 234.496094 97.160156 222.765625 C 108.890625 211.03125 122.554688 201.820312 137.769531 195.382812 C 141.125 193.964844 144.570312 192.679688 148.011719 191.558594 C 149.210938 191.167969 150.433594 190.792969 151.644531 190.4375 C 152.09375 190.308594 152.519531 190.140625 152.929688 189.941406 C 153.609375 190.25 154.289062 190.550781 154.976562 190.84375 C 165.289062 195.203125 176.230469 197.414062 187.503906 197.414062 C 198.773438 197.414062 209.714844 195.203125 220.027344 190.84375 C 220.714844 190.550781 221.398438 190.25 222.074219 189.941406 C 222.484375 190.140625 222.914062 190.308594 223.363281 190.4375 C 228.042969 191.808594 232.710938 193.472656 237.234375 195.382812 C 252.449219 201.820312 266.113281 211.03125 277.84375 222.765625 C 289.578125 234.496094 298.792969 248.160156 305.226562 263.375 C 311.886719 279.128906 315.265625 295.859375 315.265625 313.105469 Z M 315.265625 316.28125 " fill-opacity="1" fill-rule="nonzero"/></g></svg>