<svg xmlns="http://www.w3.org/2000/svg" xmlns:xlink="http://www.w3.org/1999/xlink" width="500" zoomAndPan="magnify" viewBox="0 0 375 374.999991" height="500" preserveAspectRatio="xMidYMid meet" version="1.0"><defs><clipPath id="178c29f454"><path d="M 70.386719 31.867188 L 304.386719 31.867188 L 304.386719 336 L 70.386719 336 Z M 70.386719 31.867188 " clip-rule="nonzero"/></clipPath></defs><g clip-path="url(#178c29f454)"><path fill="#ffffff" d="M 113.746094 31.640625 C 89.957031 31.640625 70.441406 51.15625 70.441406 74.941406 L 70.441406 307.578125 C 70.441406 329.410156 96.011719 342.992188 114.097656 330.761719 L 187.5 281.140625 L 260.898438 330.761719 C 278.984375 342.992188 304.554688 329.410156 304.554688 307.578125 L 304.554688 74.941406 C 304.554688 51.15625 285.039062 31.640625 261.25 31.640625 Z M 113.746094 52.921875 L 261.25 52.921875 C 273.535156 52.921875 283.269531 62.65625 283.269531 74.941406 L 283.269531 307.578125 C 283.269531 313.550781 277.765625 316.472656 272.816406 313.128906 L 193.464844 259.484375 C 192.582031 258.886719 191.632812 258.433594 190.617188 258.125 C 189.601562 257.8125 188.5625 257.65625 187.5 257.65625 C 186.433594 257.65625 185.394531 257.8125 184.378906 258.125 C 183.363281 258.433594 182.414062 258.886719 181.535156 259.484375 L 102.179688 313.128906 C 97.230469 316.472656 91.726562 313.550781 91.726562 307.578125 L 91.726562 74.941406 C 91.726562 62.65625 101.460938 52.921875 113.746094 52.921875 Z M 113.746094 52.921875 " fill-opacity="1" fill-rule="nonzero"/></g></svg>