<svg xmlns="http://www.w3.org/2000/svg" xmlns:xlink="http://www.w3.org/1999/xlink" width="500" zoomAndPan="magnify" viewBox="0 0 375 374.999991" height="500" preserveAspectRatio="xMidYMid meet" version="1.0"><defs><clipPath id="feb25ef670"><path d="M 51.753906 31.46875 L 323.253906 31.46875 L 323.253906 343.46875 L 51.753906 343.46875 Z M 51.753906 31.46875 " clip-rule="nonzero"/></clipPath></defs><g clip-path="url(#feb25ef670)"><path fill="#ffffff" d="M 306.753906 324.996094 C 306.753906 325.882812 306.027344 326.609375 305.140625 326.609375 L 234.683594 326.609375 C 233.796875 326.609375 233.070312 325.882812 233.070312 324.996094 L 233.070312 216.792969 C 233.070312 206.808594 224.953125 198.6875 214.96875 198.6875 L 160.484375 198.6875 C 150.503906 198.6875 142.382812 206.808594 142.382812 216.792969 L 142.382812 324.996094 C 142.382812 325.882812 141.660156 326.609375 140.769531 326.609375 L 70.316406 326.609375 C 69.425781 326.609375 68.703125 325.882812 68.703125 324.996094 L 68.703125 176.960938 C 68.703125 176.894531 68.703125 176.824219 68.703125 176.757812 L 68.394531 164.933594 C 68.324219 162.191406 69.425781 159.53125 71.417969 157.640625 L 186.105469 48.816406 C 186.410156 48.527344 186.792969 48.375 187.214844 48.375 C 187.636719 48.375 188.023438 48.527344 188.328125 48.816406 L 303.414062 158.019531 C 305.292969 159.804688 306.371094 162.21875 306.4375 164.8125 L 306.753906 177.066406 Z M 52.214844 324.996094 C 52.214844 334.976562 60.335938 343.097656 70.316406 343.097656 L 140.769531 343.097656 C 150.753906 343.097656 158.871094 334.976562 158.871094 324.996094 L 158.871094 216.792969 C 158.871094 215.902344 159.597656 215.179688 160.484375 215.179688 L 214.96875 215.179688 C 215.859375 215.179688 216.582031 215.902344 216.582031 216.792969 L 216.582031 324.996094 C 216.582031 334.976562 224.703125 343.097656 234.683594 343.097656 L 305.140625 343.097656 C 315.121094 343.097656 323.242188 334.976562 323.242188 324.996094 L 323.242188 176.960938 C 323.242188 176.894531 323.242188 176.828125 323.238281 176.765625 L 322.917969 164.386719 C 322.738281 157.390625 319.839844 150.878906 314.761719 146.058594 L 199.675781 36.855469 C 196.300781 33.648438 191.875 31.882812 187.214844 31.882812 C 182.558594 31.882812 178.132812 33.648438 174.753906 36.855469 L 60.066406 145.679688 C 54.691406 150.78125 51.71875 157.953125 51.914062 165.363281 L 52.214844 177.066406 L 52.214844 324.996094 " fill-opacity="1" fill-rule="nonzero"/></g></svg>