<svg xmlns="http://www.w3.org/2000/svg" xmlns:xlink="http://www.w3.org/1999/xlink" width="500" zoomAndPan="magnify" viewBox="0 0 375 374.999991" height="500" preserveAspectRatio="xMidYMid meet" version="1.0"><defs><clipPath id="68dab27fc6"><path d="M 38.746094 34.144531 L 335 34.144531 L 335 340.894531 L 38.746094 340.894531 Z M 38.746094 34.144531 " clip-rule="nonzero"/></clipPath></defs><g clip-path="url(#68dab27fc6)"><path fill="#ffffff" d="M 330.117188 316.246094 L 256.636719 245.652344 C 278.460938 222.304688 290.421875 192.019531 290.421875 159.894531 C 290.421875 127.769531 277.324219 94.734375 253.589844 70.976562 C 229.832031 47.21875 198.25 34.144531 164.671875 34.144531 C 131.089844 34.144531 99.511719 47.21875 75.75 70.976562 C 51.992188 94.734375 38.917969 126.3125 38.917969 159.894531 C 38.917969 193.476562 51.992188 225.054688 75.75 248.8125 C 99.511719 272.574219 131.089844 285.644531 164.671875 285.644531 C 189.996094 285.644531 214.164062 278.210938 234.71875 264.363281 L 310.246094 336.914062 C 312.929688 339.484375 316.453125 340.914062 320.183594 340.914062 C 323.910156 340.914062 327.84375 339.300781 330.527344 336.503906 C 336.003906 330.796875 335.824219 321.703125 330.117188 316.226562 Z M 219.917969 242.449219 C 204.117188 253.042969 185.132812 259.226562 164.671875 259.226562 C 109.808594 259.226562 65.359375 214.753906 65.359375 159.917969 C 65.359375 105.078125 109.808594 60.585938 164.671875 60.585938 C 219.53125 60.585938 263.980469 105.054688 263.980469 159.894531 C 263.980469 187.085938 253.042969 211.730469 235.332031 229.671875 C 230.648438 234.421875 225.464844 238.71875 219.894531 242.449219 Z M 219.917969 242.449219 " fill-opacity="1" fill-rule="nonzero"/></g></svg>