<svg xmlns="http://www.w3.org/2000/svg" xmlns:xlink="http://www.w3.org/1999/xlink" width="500" zoomAndPan="magnify" viewBox="0 0 375 374.999991" height="500" preserveAspectRatio="xMidYMid meet" version="1.0"><defs><clipPath id="9e931c6f94"><path d="M 44.007812 276.460938 L 117.871094 276.460938 L 117.871094 362.800781 L 44.007812 362.800781 Z M 44.007812 276.460938 " clip-rule="nonzero"/></clipPath><clipPath id="fa867d5a13"><path d="M 61 62.328125 L 312.128906 62.328125 L 312.128906 331.707031 L 61 331.707031 Z M 61 62.328125 " clip-rule="nonzero"/></clipPath></defs><g clip-path="url(#9e931c6f94)"><path fill="#ffffff" d="M -28.042969 504.226562 C -43.363281 520.664062 -53.746094 547.894531 -60.652344 574.074219 C -67.585938 548.125 -77.820312 521.097656 -92.5625 504.464844 C -108.289062 486.71875 -135.285156 475.082031 -160.785156 467.59375 C -135.644531 460.0625 -108.957031 448.609375 -92.851562 431.613281 C -77.40625 415.300781 -66.992188 388.175781 -60.09375 362.027344 C -53.03125 388.855469 -42.652344 416.453125 -27.875 431.714844 C -12.105469 447.988281 16.136719 459.527344 42.441406 467.304688 C 16.496094 474.800781 -11.507812 486.484375 -28.042969 504.226562 Z M 106.628906 455.207031 C 82.082031 451.722656 13.371094 437.503906 -9.488281 413.902344 C -32.34375 390.308594 -44.808594 315.054688 -47.683594 288.046875 C -48.378906 281.535156 -53.875 276.605469 -60.410156 276.605469 C -60.460938 276.605469 -60.515625 276.605469 -60.570312 276.605469 C -67.171875 276.683594 -72.628906 281.773438 -73.167969 288.355469 C -75.289062 314.308594 -86.300781 387.476562 -111.433594 414.003906 C -136.382812 440.34375 -203.316406 452.636719 -226.996094 455.152344 C -233.539062 455.84375 -238.492188 461.378906 -238.453125 467.960938 C -238.410156 474.539062 -233.386719 480.015625 -226.835938 480.621094 C -202.914062 482.839844 -135.59375 494.5 -111.722656 521.441406 C -87.398438 548.878906 -75.632812 621.792969 -73.152344 647.585938 C -72.519531 654.148438 -67.003906 659.160156 -60.414062 659.160156 C -60.390625 659.160156 -60.371094 659.160156 -60.347656 659.160156 C -53.730469 659.128906 -48.226562 654.050781 -47.660156 647.453125 C -45.433594 621.523438 -34.207031 548.386719 -9.316406 521.679688 C 15.339844 495.21875 82.386719 483.0625 106.136719 480.613281 C 112.570312 479.953125 117.5 474.59375 117.625 468.128906 C 117.75 461.660156 113.03125 456.121094 106.628906 455.207031 " fill-opacity="1" fill-rule="nonzero"/></g><g clip-path="url(#fa867d5a13)"><path fill="#ffffff" d="M 207.277344 220.316406 C 197.996094 230.273438 191.304688 245.453125 186.535156 260.976562 C 181.796875 245.621094 175.25 230.574219 166.347656 220.527344 C 156.644531 209.578125 141.285156 201.941406 125.8125 196.667969 C 141.03125 191.425781 156.195312 183.980469 166.09375 173.523438 C 175.480469 163.617188 182.210938 148.441406 186.992188 132.898438 C 191.839844 148.921875 198.488281 164.390625 207.425781 173.617188 C 217.09375 183.59375 233.246094 191.039062 249.375 196.40625 C 233.507812 201.683594 217.503906 209.34375 207.277344 220.316406 Z M 302.421875 185.707031 C 285.707031 183.339844 238.984375 173.734375 223.644531 157.902344 C 210.066406 143.882812 200.671875 98.035156 197.949219 72.433594 C 197.332031 66.6875 192.484375 62.335938 186.722656 62.335938 C 186.671875 62.335938 186.625 62.335938 186.578125 62.335938 C 180.753906 62.410156 175.941406 66.898438 175.464844 72.703125 C 174.019531 90.390625 166.566406 140.1875 149.699219 157.992188 C 132.992188 175.632812 87.515625 183.945312 71.414062 185.660156 C 65.636719 186.265625 61.269531 191.152344 61.304688 196.960938 C 61.339844 202.765625 65.773438 207.59375 71.550781 208.128906 C 87.808594 209.640625 133.488281 217.496094 149.449219 235.507812 C 165.800781 253.957031 173.78125 303.636719 175.480469 321.226562 C 176.035156 327.023438 180.902344 331.445312 186.714844 331.445312 C 186.738281 331.445312 186.757812 331.445312 186.777344 331.445312 C 192.617188 331.414062 197.472656 326.929688 197.972656 321.109375 C 199.472656 303.453125 207.050781 253.683594 223.800781 235.714844 C 240.304688 218 285.84375 209.789062 301.988281 208.121094 C 307.667969 207.539062 312.015625 202.8125 312.128906 197.105469 C 312.242188 191.398438 308.074219 186.507812 302.421875 185.707031 " fill-opacity="1" fill-rule="nonzero"/></g></svg>